<?xml version="1.0" encoding="UTF-8" standalone="no"?>
<!DOCTYPE svg PUBLIC "-//W3C//DTD SVG 1.1//EN"
 "http://www.w3.org/Graphics/SVG/1.1/DTD/svg11.dtd">
<!-- Generated by graphviz version 2.40.1 (20161225.0304)
 -->
<!-- Title: dependencies Pages: 1 -->
<svg width="1704pt" height="211pt"
 viewBox="0.00 0.00 1704.00 211.00" xmlns="http://www.w3.org/2000/svg" xmlns:xlink="http://www.w3.org/1999/xlink">
<g id="graph0" class="graph" transform="scale(1 1) rotate(0) translate(4 207)">
<title>dependencies</title>
<polygon fill="#ffffff" stroke="transparent" points="-4,4 -4,-207 1700,-207 1700,4 -4,4"/>
<text text-anchor="start" x="827.0091" y="-42.4" font-family="sans-serif" font-weight="bold" font-size="14.00" fill="#000000">Legend</text>
<polygon fill="#ffffb3" stroke="transparent" points="614,-10 614,-30 634,-30 634,-10 614,-10"/>
<text text-anchor="start" x="637.629" y="-15.4" font-family="sans-serif" font-size="14.00" fill="#000000"> &#160;Declarations</text>
<polygon fill="#8dd3c7" stroke="transparent" points="727,-10 727,-30 747,-30 747,-10 727,-10"/>
<text text-anchor="start" x="750.7251" y="-15.4" font-family="sans-serif" font-size="14.00" fill="#000000"> &#160;Module</text>
<polygon fill="#80b1d3" stroke="transparent" points="813,-10 813,-30 833,-30 833,-10 813,-10"/>
<text text-anchor="start" x="836.7812" y="-15.4" font-family="sans-serif" font-size="14.00" fill="#000000"> &#160;Bootstrap</text>
<polygon fill="#fdb462" stroke="transparent" points="910,-10 910,-30 930,-30 930,-10 910,-10"/>
<text text-anchor="start" x="933.6732" y="-15.4" font-family="sans-serif" font-size="14.00" fill="#000000"> &#160;Providers</text>
<polygon fill="#fb8072" stroke="transparent" points="1006,-10 1006,-30 1026,-30 1026,-10 1006,-10"/>
<text text-anchor="start" x="1029.7258" y="-15.4" font-family="sans-serif" font-size="14.00" fill="#000000"> &#160;Exports</text>
<g id="clust1" class="cluster">
<title>cluster_SmartMirrorModule</title>
<polygon fill="none" stroke="#000000" stroke-dasharray="1,5" points="8,-70 8,-195 1688,-195 1688,-70 8,-70"/>
</g>
<g id="clust3" class="cluster">
<title>cluster_SmartMirrorModule_imports</title>
<polygon fill="none" stroke="#000000" points="1450,-78 1450,-130 1680,-130 1680,-78 1450,-78"/>
</g>
<g id="clust6" class="cluster">
<title>cluster_SmartMirrorModule_providers</title>
<polygon fill="none" stroke="#000000" points="16,-78 16,-130 1442,-130 1442,-78 16,-78"/>
</g>
<!-- CommonModule -->
<g id="node1" class="node">
<title>CommonModule</title>
<polygon fill="#8dd3c7" stroke="#000000" points="1671.6681,-122 1668.6681,-126 1647.6681,-126 1644.6681,-122 1560.3319,-122 1560.3319,-86 1671.6681,-86 1671.6681,-122"/>
<text text-anchor="middle" x="1616" y="-99.8" font-family="Times,serif" font-size="14.00" fill="#000000">CommonModule</text>
</g>
<!-- SmartMirrorModule -->
<g id="node3" class="node">
<title>SmartMirrorModule</title>
<polygon fill="#8dd3c7" stroke="#000000" points="960.3062,-187 957.3062,-191 936.3062,-191 933.3062,-187 829.6938,-187 829.6938,-151 960.3062,-151 960.3062,-187"/>
<text text-anchor="middle" x="895" y="-164.8" font-family="Times,serif" font-size="14.00" fill="#000000">SmartMirrorModule</text>
</g>
<!-- CommonModule&#45;&gt;SmartMirrorModule -->
<g id="edge1" class="edge">
<title>CommonModule&#45;&gt;SmartMirrorModule</title>
<path fill="none" stroke="#000000" d="M1616,-122.2843C1616,-143.3211 1616,-175 1616,-175 1616,-175 970.2556,-175 970.2556,-175"/>
<polygon fill="#000000" stroke="#000000" points="970.2556,-171.5001 960.2556,-175 970.2555,-178.5001 970.2556,-171.5001"/>
</g>
<!-- HttpModule -->
<g id="node2" class="node">
<title>HttpModule</title>
<polygon fill="#8dd3c7" stroke="#000000" points="1542.4387,-122 1539.4387,-126 1518.4387,-126 1515.4387,-122 1457.5613,-122 1457.5613,-86 1542.4387,-86 1542.4387,-122"/>
<text text-anchor="middle" x="1500" y="-99.8" font-family="Times,serif" font-size="14.00" fill="#000000">HttpModule</text>
</g>
<!-- HttpModule&#45;&gt;SmartMirrorModule -->
<g id="edge2" class="edge">
<title>HttpModule&#45;&gt;SmartMirrorModule</title>
<path fill="none" stroke="#000000" d="M1500,-122.0225C1500,-139.3734 1500,-163 1500,-163 1500,-163 970.3204,-163 970.3204,-163"/>
<polygon fill="#000000" stroke="#000000" points="970.3205,-159.5001 960.3204,-163 970.3204,-166.5001 970.3205,-159.5001"/>
</g>
<!-- { provide: SmartMirrorModuleConfig, useFactory: createSmartMirrorModuleConfig, deps: [SMARTMIRRORMODULE_OPTIONS] } -->
<g id="node4" class="node">
<title>{ provide: SmartMirrorModuleConfig, useFactory: createSmartMirrorModuleConfig, deps: [SMARTMIRRORMODULE_OPTIONS] }</title>
<ellipse fill="#fdb462" stroke="#000000" cx="895" cy="-104" rx="538.9207" ry="18"/>
<text text-anchor="middle" x="895" y="-99.8" font-family="Times,serif" font-size="14.00" fill="#000000">{ provide: SmartMirrorModuleConfig, useFactory: createSmartMirrorModuleConfig, deps: [SMARTMIRRORMODULE_OPTIONS] }</text>
</g>
<!-- { provide: SmartMirrorModuleConfig, useFactory: createSmartMirrorModuleConfig, deps: [SMARTMIRRORMODULE_OPTIONS] }&#45;&gt;SmartMirrorModule -->
<g id="edge3" class="edge">
<title>{ provide: SmartMirrorModuleConfig, useFactory: createSmartMirrorModuleConfig, deps: [SMARTMIRRORMODULE_OPTIONS] }&#45;&gt;SmartMirrorModule</title>
<path fill="none" stroke="#000000" d="M895,-122.1061C895,-122.1061 895,-140.991 895,-140.991"/>
<polygon fill="#000000" stroke="#000000" points="891.5001,-140.9909 895,-150.991 898.5001,-140.991 891.5001,-140.9909"/>
</g>
<!-- SmartMirrorService -->
<g id="node5" class="node">
<title>SmartMirrorService</title>
<ellipse fill="#fdb462" stroke="#000000" cx="249" cy="-104" rx="88.5966" ry="18"/>
<text text-anchor="middle" x="249" y="-99.8" font-family="Times,serif" font-size="14.00" fill="#000000">SmartMirrorService</text>
</g>
<!-- SmartMirrorService&#45;&gt;SmartMirrorModule -->
<g id="edge4" class="edge">
<title>SmartMirrorService&#45;&gt;SmartMirrorModule</title>
<path fill="none" stroke="#000000" d="M249,-122.0225C249,-139.3734 249,-163 249,-163 249,-163 819.8024,-163 819.8024,-163"/>
<polygon fill="#000000" stroke="#000000" points="819.8025,-166.5001 829.8024,-163 819.8024,-159.5001 819.8025,-166.5001"/>
</g>
<!-- BaseService -->
<g id="node6" class="node">
<title>BaseService</title>
<ellipse fill="#fdb462" stroke="#000000" cx="83" cy="-104" rx="58.5232" ry="18"/>
<text text-anchor="middle" x="83" y="-99.8" font-family="Times,serif" font-size="14.00" fill="#000000">BaseService</text>
</g>
<!-- BaseService&#45;&gt;SmartMirrorModule -->
<g id="edge5" class="edge">
<title>BaseService&#45;&gt;SmartMirrorModule</title>
<path fill="none" stroke="#000000" d="M83,-122.2843C83,-143.3211 83,-175 83,-175 83,-175 819.5812,-175 819.5812,-175"/>
<polygon fill="#000000" stroke="#000000" points="819.5813,-178.5001 829.5812,-175 819.5812,-171.5001 819.5813,-178.5001"/>
</g>
</g>
</svg>
