<?xml version="1.0" encoding="UTF-8" standalone="no"?>
<!DOCTYPE svg PUBLIC "-//W3C//DTD SVG 1.1//EN"
 "http://www.w3.org/Graphics/SVG/1.1/DTD/svg11.dtd">
<!-- Generated by graphviz version 2.40.1 (20161225.0304)
 -->
<!-- Title: dependencies Pages: 1 -->
<svg width="1568pt" height="211pt"
 viewBox="0.00 0.00 1568.00 211.00" xmlns="http://www.w3.org/2000/svg" xmlns:xlink="http://www.w3.org/1999/xlink">
<g id="graph0" class="graph" transform="scale(1 1) rotate(0) translate(4 207)">
<title>dependencies</title>
<polygon fill="#ffffff" stroke="transparent" points="-4,4 -4,-207 1564,-207 1564,4 -4,4"/>
<text text-anchor="start" x="759.0091" y="-42.4" font-family="sans-serif" font-weight="bold" font-size="14.00" fill="#000000">Legend</text>
<polygon fill="#ffffb3" stroke="transparent" points="546,-10 546,-30 566,-30 566,-10 546,-10"/>
<text text-anchor="start" x="569.629" y="-15.4" font-family="sans-serif" font-size="14.00" fill="#000000"> &#160;Declarations</text>
<polygon fill="#8dd3c7" stroke="transparent" points="659,-10 659,-30 679,-30 679,-10 659,-10"/>
<text text-anchor="start" x="682.7251" y="-15.4" font-family="sans-serif" font-size="14.00" fill="#000000"> &#160;Module</text>
<polygon fill="#80b1d3" stroke="transparent" points="745,-10 745,-30 765,-30 765,-10 745,-10"/>
<text text-anchor="start" x="768.7812" y="-15.4" font-family="sans-serif" font-size="14.00" fill="#000000"> &#160;Bootstrap</text>
<polygon fill="#fdb462" stroke="transparent" points="842,-10 842,-30 862,-30 862,-10 842,-10"/>
<text text-anchor="start" x="865.6732" y="-15.4" font-family="sans-serif" font-size="14.00" fill="#000000"> &#160;Providers</text>
<polygon fill="#fb8072" stroke="transparent" points="938,-10 938,-30 958,-30 958,-10 938,-10"/>
<text text-anchor="start" x="961.7258" y="-15.4" font-family="sans-serif" font-size="14.00" fill="#000000"> &#160;Exports</text>
<g id="clust1" class="cluster">
<title>cluster_SmartMirrorModule</title>
<polygon fill="none" stroke="#000000" stroke-dasharray="1,5" points="8,-70 8,-195 1552,-195 1552,-70 8,-70"/>
</g>
<g id="clust3" class="cluster">
<title>cluster_SmartMirrorModule_imports</title>
<polygon fill="none" stroke="#000000" points="1314,-78 1314,-130 1544,-130 1544,-78 1314,-78"/>
</g>
<g id="clust6" class="cluster">
<title>cluster_SmartMirrorModule_providers</title>
<polygon fill="none" stroke="#000000" points="16,-78 16,-130 1306,-130 1306,-78 16,-78"/>
</g>
<!-- CommonModule -->
<g id="node1" class="node">
<title>CommonModule</title>
<polygon fill="#8dd3c7" stroke="#000000" points="1535.6681,-122 1532.6681,-126 1511.6681,-126 1508.6681,-122 1424.3319,-122 1424.3319,-86 1535.6681,-86 1535.6681,-122"/>
<text text-anchor="middle" x="1480" y="-99.8" font-family="Times,serif" font-size="14.00" fill="#000000">CommonModule</text>
</g>
<!-- SmartMirrorModule -->
<g id="node3" class="node">
<title>SmartMirrorModule</title>
<polygon fill="#8dd3c7" stroke="#000000" points="1126.3062,-187 1123.3062,-191 1102.3062,-191 1099.3062,-187 995.6938,-187 995.6938,-151 1126.3062,-151 1126.3062,-187"/>
<text text-anchor="middle" x="1061" y="-164.8" font-family="Times,serif" font-size="14.00" fill="#000000">SmartMirrorModule</text>
</g>
<!-- CommonModule&#45;&gt;SmartMirrorModule -->
<g id="edge1" class="edge">
<title>CommonModule&#45;&gt;SmartMirrorModule</title>
<path fill="none" stroke="#000000" d="M1480,-122.2843C1480,-143.3211 1480,-175 1480,-175 1480,-175 1136.4688,-175 1136.4688,-175"/>
<polygon fill="#000000" stroke="#000000" points="1136.4688,-171.5001 1126.4688,-175 1136.4687,-178.5001 1136.4688,-171.5001"/>
</g>
<!-- HttpModule -->
<g id="node2" class="node">
<title>HttpModule</title>
<polygon fill="#8dd3c7" stroke="#000000" points="1406.4387,-122 1403.4387,-126 1382.4387,-126 1379.4387,-122 1321.5613,-122 1321.5613,-86 1406.4387,-86 1406.4387,-122"/>
<text text-anchor="middle" x="1364" y="-99.8" font-family="Times,serif" font-size="14.00" fill="#000000">HttpModule</text>
</g>
<!-- HttpModule&#45;&gt;SmartMirrorModule -->
<g id="edge2" class="edge">
<title>HttpModule&#45;&gt;SmartMirrorModule</title>
<path fill="none" stroke="#000000" d="M1364,-122.0225C1364,-139.3734 1364,-163 1364,-163 1364,-163 1136.3734,-163 1136.3734,-163"/>
<polygon fill="#000000" stroke="#000000" points="1136.3735,-159.5001 1126.3734,-163 1136.3734,-166.5001 1136.3735,-159.5001"/>
</g>
<!-- { provide: SmartMirrorModuleConfig, useFactory: createSmartMirrorModuleConfig, deps: [SMARTMIRRORMODULE_OPTIONS] } -->
<g id="node4" class="node">
<title>{ provide: SmartMirrorModuleConfig, useFactory: createSmartMirrorModuleConfig, deps: [SMARTMIRRORMODULE_OPTIONS] }</title>
<ellipse fill="#fdb462" stroke="#000000" cx="759" cy="-104" rx="538.9207" ry="18"/>
<text text-anchor="middle" x="759" y="-99.8" font-family="Times,serif" font-size="14.00" fill="#000000">{ provide: SmartMirrorModuleConfig, useFactory: createSmartMirrorModuleConfig, deps: [SMARTMIRRORMODULE_OPTIONS] }</text>
</g>
<!-- { provide: SmartMirrorModuleConfig, useFactory: createSmartMirrorModuleConfig, deps: [SMARTMIRRORMODULE_OPTIONS] }&#45;&gt;SmartMirrorModule -->
<g id="edge3" class="edge">
<title>{ provide: SmartMirrorModuleConfig, useFactory: createSmartMirrorModuleConfig, deps: [SMARTMIRRORMODULE_OPTIONS] }&#45;&gt;SmartMirrorModule</title>
<path fill="none" stroke="#000000" d="M1061,-119.0757C1061,-119.0757 1061,-140.7642 1061,-140.7642"/>
<polygon fill="#000000" stroke="#000000" points="1057.5001,-140.7642 1061,-150.7642 1064.5001,-140.7642 1057.5001,-140.7642"/>
</g>
<!-- SmartMirrorService -->
<g id="node5" class="node">
<title>SmartMirrorService</title>
<ellipse fill="#fdb462" stroke="#000000" cx="113" cy="-104" rx="88.5966" ry="18"/>
<text text-anchor="middle" x="113" y="-99.8" font-family="Times,serif" font-size="14.00" fill="#000000">SmartMirrorService</text>
</g>
<!-- SmartMirrorService&#45;&gt;SmartMirrorModule -->
<g id="edge4" class="edge">
<title>SmartMirrorService&#45;&gt;SmartMirrorModule</title>
<path fill="none" stroke="#000000" d="M113,-122.1061C113,-141.3391 113,-169 113,-169 113,-169 985.8401,-169 985.8401,-169"/>
<polygon fill="#000000" stroke="#000000" points="985.8402,-172.5001 995.8401,-169 985.8401,-165.5001 985.8402,-172.5001"/>
</g>
</g>
</svg>
