<?xml version="1.0" encoding="UTF-8" standalone="no"?>
<!DOCTYPE svg PUBLIC "-//W3C//DTD SVG 1.1//EN"
 "http://www.w3.org/Graphics/SVG/1.1/DTD/svg11.dtd">
<!-- Generated by graphviz version 2.40.1 (20161225.0304)
 -->
<!-- Title: dependencies Pages: 1 -->
<svg width="1854pt" height="211pt"
 viewBox="0.00 0.00 1854.00 211.00" xmlns="http://www.w3.org/2000/svg" xmlns:xlink="http://www.w3.org/1999/xlink">
<g id="graph0" class="graph" transform="scale(1 1) rotate(0) translate(4 207)">
<title>dependencies</title>
<polygon fill="#ffffff" stroke="transparent" points="-4,4 -4,-207 1850,-207 1850,4 -4,4"/>
<text text-anchor="start" x="902.0091" y="-42.4" font-family="sans-serif" font-weight="bold" font-size="14.00" fill="#000000">Legend</text>
<polygon fill="#ffffb3" stroke="transparent" points="689,-10 689,-30 709,-30 709,-10 689,-10"/>
<text text-anchor="start" x="712.629" y="-15.4" font-family="sans-serif" font-size="14.00" fill="#000000"> &#160;Declarations</text>
<polygon fill="#8dd3c7" stroke="transparent" points="802,-10 802,-30 822,-30 822,-10 802,-10"/>
<text text-anchor="start" x="825.7251" y="-15.4" font-family="sans-serif" font-size="14.00" fill="#000000"> &#160;Module</text>
<polygon fill="#80b1d3" stroke="transparent" points="888,-10 888,-30 908,-30 908,-10 888,-10"/>
<text text-anchor="start" x="911.7812" y="-15.4" font-family="sans-serif" font-size="14.00" fill="#000000"> &#160;Bootstrap</text>
<polygon fill="#fdb462" stroke="transparent" points="985,-10 985,-30 1005,-30 1005,-10 985,-10"/>
<text text-anchor="start" x="1008.6732" y="-15.4" font-family="sans-serif" font-size="14.00" fill="#000000"> &#160;Providers</text>
<polygon fill="#fb8072" stroke="transparent" points="1081,-10 1081,-30 1101,-30 1101,-10 1081,-10"/>
<text text-anchor="start" x="1104.7258" y="-15.4" font-family="sans-serif" font-size="14.00" fill="#000000"> &#160;Exports</text>
<g id="clust1" class="cluster">
<title>cluster_SmartMirrorModule</title>
<polygon fill="none" stroke="#000000" stroke-dasharray="1,5" points="8,-70 8,-195 1838,-195 1838,-70 8,-70"/>
</g>
<g id="clust3" class="cluster">
<title>cluster_SmartMirrorModule_imports</title>
<polygon fill="none" stroke="#000000" points="1600,-78 1600,-130 1830,-130 1830,-78 1600,-78"/>
</g>
<g id="clust6" class="cluster">
<title>cluster_SmartMirrorModule_providers</title>
<polygon fill="none" stroke="#000000" points="16,-78 16,-130 1592,-130 1592,-78 16,-78"/>
</g>
<!-- CommonModule -->
<g id="node1" class="node">
<title>CommonModule</title>
<polygon fill="#8dd3c7" stroke="#000000" points="1821.6681,-122 1818.6681,-126 1797.6681,-126 1794.6681,-122 1710.3319,-122 1710.3319,-86 1821.6681,-86 1821.6681,-122"/>
<text text-anchor="middle" x="1766" y="-99.8" font-family="Times,serif" font-size="14.00" fill="#000000">CommonModule</text>
</g>
<!-- SmartMirrorModule -->
<g id="node3" class="node">
<title>SmartMirrorModule</title>
<polygon fill="#8dd3c7" stroke="#000000" points="787.3062,-187 784.3062,-191 763.3062,-191 760.3062,-187 656.6938,-187 656.6938,-151 787.3062,-151 787.3062,-187"/>
<text text-anchor="middle" x="722" y="-164.8" font-family="Times,serif" font-size="14.00" fill="#000000">SmartMirrorModule</text>
</g>
<!-- CommonModule&#45;&gt;SmartMirrorModule -->
<g id="edge1" class="edge">
<title>CommonModule&#45;&gt;SmartMirrorModule</title>
<path fill="none" stroke="#000000" d="M1766,-122.2843C1766,-143.3211 1766,-175 1766,-175 1766,-175 797.3069,-175 797.3069,-175"/>
<polygon fill="#000000" stroke="#000000" points="797.3069,-171.5001 787.3069,-175 797.3068,-178.5001 797.3069,-171.5001"/>
</g>
<!-- HttpModule -->
<g id="node2" class="node">
<title>HttpModule</title>
<polygon fill="#8dd3c7" stroke="#000000" points="1692.4387,-122 1689.4387,-126 1668.4387,-126 1665.4387,-122 1607.5613,-122 1607.5613,-86 1692.4387,-86 1692.4387,-122"/>
<text text-anchor="middle" x="1650" y="-99.8" font-family="Times,serif" font-size="14.00" fill="#000000">HttpModule</text>
</g>
<!-- HttpModule&#45;&gt;SmartMirrorModule -->
<g id="edge2" class="edge">
<title>HttpModule&#45;&gt;SmartMirrorModule</title>
<path fill="none" stroke="#000000" d="M1650,-122.0225C1650,-139.3734 1650,-163 1650,-163 1650,-163 797.2552,-163 797.2552,-163"/>
<polygon fill="#000000" stroke="#000000" points="797.2552,-159.5001 787.2552,-163 797.2551,-166.5001 797.2552,-159.5001"/>
</g>
<!-- { provide: SmartMirrorModuleConfig, useFactory: createSmartMirrorModuleConfig, deps: [SMARTMIRRORMODULE_OPTIONS] } -->
<g id="node4" class="node">
<title>{ provide: SmartMirrorModuleConfig, useFactory: createSmartMirrorModuleConfig, deps: [SMARTMIRRORMODULE_OPTIONS] }</title>
<ellipse fill="#fdb462" stroke="#000000" cx="1045" cy="-104" rx="538.9207" ry="18"/>
<text text-anchor="middle" x="1045" y="-99.8" font-family="Times,serif" font-size="14.00" fill="#000000">{ provide: SmartMirrorModuleConfig, useFactory: createSmartMirrorModuleConfig, deps: [SMARTMIRRORMODULE_OPTIONS] }</text>
</g>
<!-- { provide: SmartMirrorModuleConfig, useFactory: createSmartMirrorModuleConfig, deps: [SMARTMIRRORMODULE_OPTIONS] }&#45;&gt;SmartMirrorModule -->
<g id="edge3" class="edge">
<title>{ provide: SmartMirrorModuleConfig, useFactory: createSmartMirrorModuleConfig, deps: [SMARTMIRRORMODULE_OPTIONS] }&#45;&gt;SmartMirrorModule</title>
<path fill="none" stroke="#000000" d="M722,-118.4256C722,-118.4256 722,-140.8939 722,-140.8939"/>
<polygon fill="#000000" stroke="#000000" points="718.5001,-140.8938 722,-150.8939 725.5001,-140.8939 718.5001,-140.8938"/>
</g>
<!-- SmartMirrorService -->
<g id="node5" class="node">
<title>SmartMirrorService</title>
<ellipse fill="#fdb462" stroke="#000000" cx="399" cy="-104" rx="88.5966" ry="18"/>
<text text-anchor="middle" x="399" y="-99.8" font-family="Times,serif" font-size="14.00" fill="#000000">SmartMirrorService</text>
</g>
<!-- SmartMirrorService&#45;&gt;SmartMirrorModule -->
<g id="edge4" class="edge">
<title>SmartMirrorService&#45;&gt;SmartMirrorModule</title>
<path fill="none" stroke="#000000" d="M399,-122.027C399,-138.3976 399,-160 399,-160 399,-160 646.6361,-160 646.6361,-160"/>
<polygon fill="#000000" stroke="#000000" points="646.6362,-163.5001 656.6361,-160 646.6361,-156.5001 646.6362,-163.5001"/>
</g>
<!-- SocketService -->
<g id="node6" class="node">
<title>SocketService</title>
<ellipse fill="#fdb462" stroke="#000000" cx="226" cy="-104" rx="66.0492" ry="18"/>
<text text-anchor="middle" x="226" y="-99.8" font-family="Times,serif" font-size="14.00" fill="#000000">SocketService</text>
</g>
<!-- SocketService&#45;&gt;SmartMirrorModule -->
<g id="edge5" class="edge">
<title>SocketService&#45;&gt;SmartMirrorModule</title>
<path fill="none" stroke="#000000" d="M226,-122.1061C226,-141.3391 226,-169 226,-169 226,-169 646.6466,-169 646.6466,-169"/>
<polygon fill="#000000" stroke="#000000" points="646.6467,-172.5001 656.6466,-169 646.6466,-165.5001 646.6467,-172.5001"/>
</g>
<!-- BaseService -->
<g id="node7" class="node">
<title>BaseService</title>
<ellipse fill="#fdb462" stroke="#000000" cx="83" cy="-104" rx="58.5232" ry="18"/>
<text text-anchor="middle" x="83" y="-99.8" font-family="Times,serif" font-size="14.00" fill="#000000">BaseService</text>
</g>
<!-- BaseService&#45;&gt;SmartMirrorModule -->
<g id="edge6" class="edge">
<title>BaseService&#45;&gt;SmartMirrorModule</title>
<path fill="none" stroke="#000000" d="M83,-122.2921C83,-144.2057 83,-178 83,-178 83,-178 646.6188,-178 646.6188,-178"/>
<polygon fill="#000000" stroke="#000000" points="646.6188,-181.5001 656.6188,-178 646.6187,-174.5001 646.6188,-181.5001"/>
</g>
</g>
</svg>
